# AST/ASF file generated using VICON BodyLanguage
# -----------------------------------------------
:version 1.10
:name VICON
:units
  mass 1.0
  length 0.45
  angle deg
:documentation
   .ast/.asf automatically generated from VICON data using
   VICON BodyBuilder and BodyLanguage model FoxedUp or BRILLIANT.MOD
:root
   order TX TY TZ RX RY RZ
   axis XYZ
   position 0 0 0  
   orientation 0 0 0 
:bonedata
  begin
     id 1 
     name lhipjoint
     direction 0.528046 -0.759594 0.379717 
     length 2.39752 
     axis 0 0 0  XYZ
  end
  begin
     id 2 
     name lfemur
     direction 0.34202 -0.939693 0  
     length 7.31175  
     axis 0 0 20  XYZ
    dof rx ry rz
    limits (-160.0 20.0)
           (-70.0 70.0)
           (-60.0 70.0)
  end
  begin
     id 3 
     name ltibia
     direction 0.34202 -0.939693 0   
     length 7.52482   
     axis 0 0 20   XYZ
    dof rx
    limits (-10.0 170.0)
  end
  begin
     id 4 
     name lfoot
     direction 0.0675379 -0.185559 0.980309   
     length 2.00961   
     axis -90 7.62852e-016 20   XYZ
    dof rx rz
    limits (-45.0 90.0)
           (-70.0 20.0)
  end
  begin
     id 5 
     name ltoes
     direction 1.5352e-011 -4.22286e-011 1   
     length 1.01383   
     axis -90 7.62852e-016 20   XYZ
    dof rx
    limits (-90.0 20.0)
  end
  begin
     id 6 
     name rhipjoint
     direction -0.510274 -0.769251 0.384544   
     length 2.36742  
     axis 0 0 0  XYZ 
  end
  begin
     id 7 
     name rfemur
     direction -0.34202 -0.939693 0   
     length 7.45325   
     axis 0 0 -20   XYZ
    dof rx ry rz
    limits (-160.0 20.0)
           (-70.0 70.0)
           (-70.0 60.0)
  end
  begin
     id 8 
     name rtibia
     direction -0.34202 -0.939693 0   
     length 7.49587   
     axis 0 0 -20   XYZ
    dof rx
    limits (-10.0 170.0)
 end
 begin
     id 9 
     name rfoot
     direction -0.106475 -0.292536 0.950308   
     length 2.20898  
     axis -90 -7.62852e-016 -20   XYZ
    dof rx rz
    limits (-45.0 90.0)
           (-20.0 70.0)
  end
  begin
     id 10 
     name rtoes
     direction -1.53597e-011 -4.22023e-011 1   
     length 1.10065   
     axis -90 -7.62852e-016 -20   XYZ
    dof rx
    limits (-90.0 20.0)
  end
  begin
     id 11 
     name lowerback
     direction 0.0260024 0.998026 -0.0571652   
     length 2.11214   
     axis 0 0 0   XYZ
    dof rx ry rz
    limits (-20.0 45.0)
           (-30.0 30.0)
           (-30.0 30.0)
  end
  begin
     id 12 
     name upperback
     direction 0.0216202 0.999542 -0.0211766   
     length 2.11689   
     axis 0 0 0   XYZ
    dof rx ry rz
    limits (-20.0 45.0)
           (-30.0 30.0)
           (-30.0 30.0)
  end
  begin
     id 13 
     name thorax
     direction 0.00883312 0.999944 0.00589057   
     length 2.11821   
     axis 0 0 0   XYZ
    dof rx ry rz
    limits (-20.0 45.0)
           (-30.0 30.0)
           (-30.0 30.0)
  end
  begin
     id 14 
     name lowerneck
     direction -0.059386 0.994433 0.0870401   
     length 1.81176   
     axis 0 0 0   XYZ
    dof rx ry rz
    limits (-20.0 45.0)
           (-30.0 30.0)
           (-30.0 30.0)
  end
  begin
     id 15 
     name upperneck
     direction 0.0506457 0.97328 -0.223967   
     length 1.82382   
     axis 0 0 0   XYZ
    dof rx ry rz
    limits (-20.0 45.0)
           (-30.0 30.0)
           (-30.0 30.0)
  end
  begin
     id 16
     name head
     direction 0.0205902 0.996147 -0.0852487  
     length 1.84805  
     axis 0 0 0   XYZ
    dof rx ry rz
    limits (-20.0 45.0)
           (-30.0 30.0)
           (-30.0 30.0)
  end
  begin
     id 17 
     name lclavicle
     direction 0.949493 0.303881 -0.0782325  
     length 3.60584  
     axis 0 0 0   XYZ
    dof ry rz
    limits (-20.0 10.0)
           (0.0 20.0)
  end
  begin
     id 18 
     name lhumerus
     direction 1 -4.48965e-011 1.48782e-027   
     length 4.95681   
     axis 180 -30 -90   XYZ
    dof rx ry rz
    limits (-60.0 90.0)
           (-90.0 90.0)
           (-90.0 90.0)
  end
  begin
     id 19
     name lradius
     direction 1 -4.48952e-011 2.06528e-027   
     length 3.40915   
     axis 180 -30 -90   XYZ
    dof rx
    limits (-10.0 170.0)
  end
  begin
     id 20
     name lwrist
     direction 1 -4.48964e-011 1.28021e-027   
     length 1.70457   
     axis -1.61767e-015 90 90   XYZ
    dof ry
    limits (-180.0 0.0)
 end
  begin
     id 21 
     name lhand
     direction 1 -4.49094e-011 2.54887e-027   
     length 0.616403   
     axis -1.63363e-015 90 90   XYZ
    dof rx rz
    limits (-90.0 90.0)
           (-45.0 45.0)
  end
  begin
     id 22 
     name lfingers
     direction 1 -4.49002e-011 5.11407e-027   
     length 0.49696   
     axis -3.26723e-015 90 90   XYZ
    dof rx
    limits (0.0 90.0)
  end
  begin
     id 23
     name lthumb
     direction 0.707107 -6.34998e-011 0.707107   
     length 0.713539   
     axis -90 45 -2.25915e-014   XYZ
    dof rx rz
    limits (-45.0 45.0)
           (-45.0 45.0)
  end
  begin
     id 24 
     name rclavicle
     direction -0.937751 0.334612 -0.0930482   
     length 3.46287  
     axis 0 0 0   XYZ 
    dof ry rz
    limits (-10.0 20.0)
           (-20.0 0.0)
  end
  begin
     id 25 
     name rhumerus
     direction -1 -4.48962e-011 3.59972e-027  
     length 5.352   
     axis 180 30 90   XYZ
    dof rx ry rz
    limits (-90.0 60.0)
           (-90.0 90.0)
           (-90.0 90.0)
  end
  begin
     id 26 
     name rradius
     direction -1 -4.48987e-011 -3.76925e-027   
     length 3.43721   
     axis 180 30 90   XYZ
    dof rx
    limits (-10.0 170.0)
  end
  begin
     id 27 
     name rwrist
     direction -1 -4.48943e-011 1.28112e-027   
     length 1.7186   
     axis -1.61767e-015 -90 -90   XYZ
    dof ry
    limits (-180.0 0.0)
  end
  begin
     id 28
     name rhand
     direction -1 -4.49027e-011 2.55483e-027   
     length 0.72009   
     axis -1.63363e-015 -90 -90   XYZ
    dof rx rz
    limits (-90.0 90.0)
           (-45.0 45.0)
  end
  begin
     id 29
     name rfingers
     direction -1 -4.48827e-011 5.14506e-027   
     length 0.580555   
     axis -3.26723e-015 -90 -90   XYZ
    dof rx
    limits (0.0 90.0)
  end
  begin
     id 30
     name rthumb
     direction -0.707107 -6.34936e-011 0.707107   
     length 0.833564   
     axis -90 -45 2.25915e-014   XYZ
    dof rx rz
    limits (-45.0 45.0)
           (-45.0 45.0)
  end
:hierarchy
  begin
    root lhipjoint rhipjoint lowerback
    lhipjoint lfemur
    lfemur ltibia
    ltibia lfoot
    lfoot ltoes
    rhipjoint rfemur
    rfemur rtibia
    rtibia rfoot
    rfoot rtoes
    lowerback upperback
    upperback thorax
    thorax lowerneck lclavicle rclavicle
    lowerneck upperneck
    upperneck head
    lclavicle lhumerus
    lhumerus lradius
    lradius lwrist
    lwrist lhand lthumb
    lhand lfingers
    rclavicle rhumerus
    rhumerus rradius
    rradius rwrist
    rwrist rhand rthumb
    rhand rfingers
  end

#!OML:ASF H:\Terrain\Patient Classification 1\Terrain2\Thursday\justin.ASF
:FULLY-SPECIFIED
:DEGREES
978
root 9.13309 19.0719 -15.8867 -353.029 -0.525151 -9.00943
lowerback 12.1674 2.21437 7.48517
upperback 2.1009 4.01784 2.57612
thorax -4.27599 1.88988 -2.11665
lowerneck -17.2115 -3.3404 -9.53502
upperneck 33.8781 -3.31511 4.64948
head 14.9153 -1.97578 3.02312
rclavicle -2.37548e-014 -1.19271e-015
rhumerus -28.7869 0.433757 -86.1261
rradius 37.5306
rwrist -10.0178
rhand -18.0493 11.642
rfingers 7.12502
rthumb 8.22279 -18.178
lclavicle -2.37548e-014 -1.19271e-015
lhumerus -33.4076 6.06542 84.224
lradius 32.1429
lwrist 5.29858
lhand -18.3163 22.2509
lfingers 7.12502
lthumb 7.9651 52.0808
rfemur 1.14002 -3.79667 29.4412
rtibia 29.6252
rfoot 28.8959 3.64628
rtoes 10.4634
lfemur -48.2312 -0.821464 -11.3393
ltibia 59.7405
lfoot -13.7414 -10.1545
ltoes 12.8638
979
root 9.14087 19.1746 -15.7739 -353.125 -0.504619 -8.87346
lowerback 12.092 2.1663 7.20293
upperback 2.12473 3.90924 2.56474
thorax -4.23702 1.8425 -1.95263
lowerneck -17.3285 -3.3002 -9.37195
upperneck 33.9818 -3.25134 4.5091
head 14.9774 -1.94856 2.94903
rclavicle 1.76421e-014 9.93923e-015
rhumerus -28.467 0.437987 -85.9557
rradius 37.5809
rwrist -9.93083
rhand -17.687 11.5201
rfingers 7.12502
rthumb 8.57241 -18.2858
lclavicle 1.76421e-014 9.93923e-015
lhumerus -33.2396 5.93151 84.2269
lradius 32.4122
lwrist 5.12682
lhand -17.8083 22.0083
lfingers 7.12502
lthumb 8.45536 51.8191
rfemur -0.36423 -3.89158 29.2219
rtibia 32.7966
rfoot 28.3023 2.01552
rtoes 10.2025
lfemur -46.9558 -1.12273 -11.4863
ltibia 58.6571
lfoot -14.0048 -9.92564
ltoes 11.7974
980
root 9.14476 19.2499 -15.6652 -353.24 -0.412493 -8.41396
lowerback 12.0329 2.14985 6.57452
upperback 2.17443 3.79673 2.5002
thorax -4.19821 1.79797 -1.65206
lowerneck -17.4429 -3.33949 -9.34477
upperneck 34.0168 -3.30281 4.49164
head 15.0242 -1.96923 2.9281
rclavicle 1.95803e-014 -3.77691e-015
rhumerus -28.1046 0.0642273 -85.641
rradius 37.6611
rwrist -9.80202
rhand -17.5394 11.023
rfingers 7.12502
rthumb 8.71486 -18.7771
lclavicle 1.95803e-014 -3.77691e-015
lhumerus -33.0177 5.69916 84.3257
lradius 32.5797
lwrist 4.75714
lhand -17.6245 21.8986
lfingers 7.12502
lthumb 8.63275 51.7021
rfemur -1.92789 -4.11707 28.663
rtibia 36.1786
rfoot 27.6642 0.373842
rtoes 10.5954
lfemur -45.7683 -1.50585 -11.9887
ltibia 57.5849
lfoot -14.0966 -9.62378
ltoes 11.3811
981
root 9.1501 19.3274 -15.5563 -353.437 -0.464229 -7.86651
lowerback 12.0614 2.13467 5.82488
upperback 2.20794 3.67935 2.4266
thorax -4.23027 1.74958 -1.29702
lowerneck -17.3949 -3.32022 -9.39329
upperneck 33.9828 -3.29107 4.56493
head 14.9984 -1.96104 2.9688
rclavicle 4.00551e-014 1.98785e-015
rhumerus -27.7467 -0.259673 -85.3491
rradius 37.6367
rwrist -9.76297
rhand -17.5705 11.198
rfingers 7.12502
rthumb 8.68482 -18.6034
lclavicle 4.00551e-014 1.98785e-015
lhumerus -32.8735 5.55767 84.4509
lradius 32.6884
lwrist 4.67208
lhand -18.0822 22.2114
lfingers 7.12502
lthumb 8.19096 52.0327
rfemur -3.48522 -4.36889 27.9528
rtibia 39.7048
rfoot 27.0472 -0.54273
rtoes 10.5291
lfemur -44.405 -1.79632 -12.5979
ltibia 56.4283
lfoot -14.0946 -9.25471
ltoes 11.3713
982
root 9.16003 19.4096 -15.4521 -353.661 -0.534394 -7.67717
lowerback 12.0887 2.10235 5.52179
upperback 2.25192 3.59875 2.43886
thorax -4.2238 1.71482 -1.1044
lowerneck -17.4791 -3.26995 -9.41255
upperneck 34.1082 -3.19414 4.53689
head 15.0677 -1.92878 2.9809
rclavicle -1.39149e-014 7.55382e-015
rhumerus -27.4709 -0.568317 -85.0692
rradius 37.6839
rwrist -9.87799
rhand -17.6836 12.2089
rfingers 7.12502
rthumb 8.57571 -17.5969
lclavicle -1.39149e-014 7.55382e-015
lhumerus -32.7414 5.31453 84.6271
lradius 32.9615
lwrist 4.96183
lhand -18.5037 22.549
lfingers 7.12502
lthumb 7.78419 52.3857
rfemur -5.13317 -4.60637 27.6233
rtibia 43.3719
rfoot 26.1371 -1.1615
rtoes 9.86444
lfemur -43.0475 -2.03948 -12.8212
ltibia 55.2987
lfoot -14.1681 -8.99108
ltoes 11.0326
983
root 9.16752 19.4884 -15.3507 -353.932 -0.545379 -7.38328
lowerback 12.172 2.09348 5.19517
upperback 2.35173 3.54268 2.3648
thorax -4.18312 1.69349 -0.993169
lowerneck -17.7176 -3.24239 -9.29832
upperneck 34.183 -3.12625 4.41972
head 15.1466 -1.90102 2.92479
rclavicle 4.05024e-014 4.77083e-015
rhumerus -27.2211 -1.30151 -84.7961
rradius 37.8175
rwrist -9.9446
rhand -17.9435 12.8412
rfingers 7.12502
rthumb 8.32488 -16.9748
lclavicle 4.05024e-014 4.77083e-015
lhumerus -32.4923 4.77382 84.7627
lradius 33.3683
lwrist 5.25309
lhand -18.6606 23.1703
lfingers 7.12502
lthumb 7.63279 53.0126
rfemur -6.77506 -4.92172 27.1958
rtibia 47.0681
rfoot 25.0518 -1.70896
rtoes 9.69066
lfemur -41.6711 -2.31479 -13.1732
ltibia 54.164
lfoot -14.1952 -8.81201
ltoes 10.5317
984
root 9.17396 19.5596 -15.2526 -354.181 -0.443221 -7.10947
lowerback 12.3203 1.97107 4.85518
upperback 2.32949 3.34675 2.31164
thorax -4.31493 1.59751 -0.837336
lowerneck -17.6915 -3.14251 -9.15463
upperneck 34.2368 -2.9888 4.29791
head 15.1467 -1.84339 2.87411
rclavicle -3.57812e-015 3.47873e-015
rhumerus -27.09 -2.10722 -84.5299
rradius 37.9509
rwrist -9.78448
rhand -17.9905 12.7867
rfingers 7.12502
rthumb 8.27948 -17.031
lclavicle -3.57812e-015 3.47873e-015
lhumerus -32.5053 4.46355 84.7439
lradius 33.7677
lwrist 5.48993
lhand -19.0033 23.4488
lfingers 7.12502
lthumb 7.30201 53.3028
rfemur -8.48305 -5.3341 26.8017
rtibia 50.7895
rfoot 23.8685 -2.09537
rtoes 10.4796
lfemur -40.3806 -2.59458 -13.5184
ltibia 53.0399
lfoot -14.0455 -8.64715
ltoes 10.6987
985
root 9.18534 19.6286 -15.1527 -354.451 -0.403062 -6.85692
lowerback 12.4719 1.81651 4.45736
upperback 2.13991 3.11273 2.34428
thorax -4.63252 1.47877 -0.555937
lowerneck -17.1084 -2.98302 -9.1615
upperneck 34.3303 -2.81644 4.30231
head 15.0392 -1.77901 2.91164
rclavicle 1.46604e-014 -5.96354e-016
rhumerus -27.3393 -2.51602 -84.2121
rradius 38.2107
rwrist -10.1875
rhand -17.8761 12.592
rfingers 7.12502
rthumb 8.38995 -17.2214
lclavicle 1.46604e-014 -5.96354e-016
lhumerus -32.9804 4.56534 84.6039
lradius 34.0982
lwrist 5.23208
lhand -18.7825 23.0734
lfingers 7.12502
lthumb 7.51512 52.9199
rfemur -10.1725 -5.67527 26.3849
rtibia 54.519
rfoot 22.5216 -2.28995
rtoes 11.3213
lfemur -39.0212 -2.8311 -13.8567
ltibia 51.895
lfoot -13.9559 -8.55548
ltoes 11.4706
986
root 9.19654 19.7 -15.0488 -354.746 -0.549447 -6.44141
lowerback 12.5789 1.827 4.0018
upperback 2.2376 3.06464 2.27725
thorax -4.61091 1.46292 -0.366102
lowerneck -17.3416 -3.01533 -9.35486
upperneck 34.439 -2.86707 4.54522
head 15.1579 -1.79343 3.04252
rclavicle -1.50579e-014 1.17283e-014
rhumerus -27.1178 -3.00299 -83.8815
rradius 38.4086
rwrist -11.2183
rhand -18.2099 12.3454
rfingers 7.12502
rthumb 8.06778 -17.4806
lclavicle -1.50579e-014 1.17283e-014
lhumerus -32.7264 4.51341 84.5616
lradius 34.1936
lwrist 4.85741
lhand -18.3168 22.7602
lfingers 7.12502
lthumb 7.96456 52.5901
rfemur -11.8332 -5.91004 25.7629
rtibia 58.2073
rfoot 21.2533 -1.97163
rtoes 10.1979
lfemur -37.5483 -2.96694 -14.3885
ltibia 50.7091
lfoot -14.0174 -8.42562
ltoes 11.3421
987
root 9.20444 19.7776 -14.945 -355.002 -0.639292 -6.19752
lowerback 12.609 1.75049 3.6404
upperback 2.24709 2.91754 2.28543
thorax -4.64102 1.39554 -0.133072
lowerneck -17.3689 -2.91658 -9.39122
upperneck 34.5667 -2.7309 4.60264
head 15.213 -1.73665 3.10156
rclavicle -3.99557e-014 7.95139e-016
rhumerus -27.0151 -3.16696 -83.6237
rradius 38.4722
rwrist -12.2451
rhand -18.8983 12.5449
rfingers 7.12502
rthumb 7.40328 -17.3056
lclavicle -3.99557e-014 7.95139e-016
lhumerus -32.6826 4.62489 84.4683
lradius 34.3766
lwrist 4.79614
lhand -18.464 22.8661
lfingers 7.12502
lthumb 7.82248 52.7014
rfemur -13.4557 -6.14161 25.3828
rtibia 61.767
rfoot 20.1421 -1.52523
rtoes 8.31937
lfemur -36.1402 -3.03927 -14.7407
ltibia 49.468
lfoot -13.9284 -8.25013
ltoes 10.4099
